<?xml version="1.0"?>
<svg width="480" height="360" xmlns="http://www.w3.org/2000/svg" xmlns:svg="http://www.w3.org/2000/svg">
 <defs>
  <filter color-interpolation-filters="sRGB" filterUnits="userSpaceOnUse" height="277.61" id="prefix__filter0_d" width="394.62" x="51" y="49">
   <feFlood flood-opacity="0" result="BackgroundImageFix"/>
   <feColorMatrix in="SourceAlpha" values="0 0 0 0 0 0 0 0 0 0 0 0 0 0 0 0 0 0 127 0"/>
   <feOffset dx="8" dy="8"/>
   <feGaussianBlur stdDeviation="6"/>
   <feColorMatrix values="0 0 0 0 0 0 0 0 0 0 0 0 0 0 0 0 0 0 0.12 0"/>
   <feBlend in2="BackgroundImageFix"/>
   <feBlend in="SourceGraphic" in2="effect1_dropShadow"/>
  </filter>
 </defs>
 <g class="layer">
  <title>Layer 1</title>
  <path clip-rule="evenodd" d="m0,197.78c0,41.46 14.95,79.24 39.54,107.79c28.21,32.76 69.13,53.36 114.73,53.43a148.46,148.46 0 0 0 56.5,-11.04c9.05,-3.7 19.18,-3.27 27.95,1.11a75.77,75.77 0 0 0 33.95,8.01c5.03,0 9.95,-0.49 14.7,-1.43c13.58,-2.67 25.94,-8.99 36.09,-17.94c6.38,-5.63 14.55,-8.46 22.9,-8.45l0.14,0c27.59,0 53.22,-8.73 74.49,-23.69c19.03,-13.36 34.56,-31.7 44.91,-53.23c9.02,-18.76 14.1,-39.95 14.1,-62.38c0,-76.93 -59.77,-139.31 -133.5,-139.31c-7.51,0 -14.88,0.67 -22.06,1.9c-19.02,-32.13 -53.08,-53.55 -91.94,-53.55a103.65,103.65 0 0 0 -45.88,10.66c-13.24,6.49 -25.01,15.71 -34.64,26.94c-32.7,0.54 -62.93,11.69 -87.68,30.29c-38.95,29.27 -64.3,76.99 -64.3,130.89z" fill="#ff7f00" fill-rule="evenodd" id="svg_1" opacity="0.2"/>
  <g filter="url(#prefix__filter0_d)" id="svg_2">
   <circle cx="182.11" cy="97.62" fill="#ffaad4" id="svg_3" opacity="0.15" r="44.62"/>
   <circle cx="182.11" cy="97.62" fill="#bfbfbf" id="svg_4" r="23.41"/>
   <path clip-rule="evenodd" d="m244.88,305.61c34.56,0 62.57,-28.02 62.57,-62.57c0,-34.56 -28.01,-62.58 -62.57,-62.58c-34.56,0 -62.58,28.02 -62.58,62.58c0,34.56 28.02,62.57 62.58,62.57zm0,-23.18c21.75,0 39.39,-17.64 39.39,-39.39c0,-21.76 -17.64,-39.39 -39.39,-39.39s-39.39,17.63 -39.39,39.39c0,21.75 17.63,39.39 39.39,39.39z" fill="#3f3f3f" fill-rule="evenodd" id="svg_5"/>
   <path clip-rule="evenodd" d="m174.97,264.59c0,-4.13 -1.5,-5.62 -5.64,-5.62l-11.37,0l0,-66.61c0,-4.48 -1.5,-5.64 -5.64,-5.64l-9.17,0a9.87,9.87 0 0 0 -7.95,3.97l-55.03,68.28a11.01,11.01 0 0 0 -1.96,6.78l0,5.97c0,4.15 1.49,5.64 5.63,5.64l54.67,0l0,21.71c0,4.13 1.49,5.62 5.63,5.62l8.12,0c4.14,0 5.63,-1.49 5.63,-5.62l0,-21.71l11.44,0c4.41,0 5.64,-1.49 5.64,-5.64l0,-7.13zm-72.42,-5.62l35.96,-44.42l0,44.42l-35.97,0l0.01,0zm309.06,5.62c0,-4.13 -1.49,-5.62 -5.64,-5.62l-11.42,0l0,-66.61c0,-4.48 -1.49,-5.64 -5.64,-5.64l-9.11,0a9.87,9.87 0 0 0 -7.95,3.97l-55.03,68.28a11.01,11.01 0 0 0 -1.98,6.78l0,5.97c0,4.15 1.49,5.64 5.63,5.64l54.68,0l0,21.71c0,4.13 1.49,5.62 5.63,5.62l8.12,0c4.14,0 5.64,-1.49 5.64,-5.62l0,-21.71l11.43,0c4.48,0 5.64,-1.49 5.64,-5.64l0,-7.13zm-72.42,-5.62l35.96,-44.42l0,44.42l-35.96,0z" fill="#7f3f00" fill-rule="evenodd" id="svg_6" transform="matrix(1 0 0 1 0 0)"/>
   <path d="m425.62,117.22a8.27,8.27 0 0 0 -9.6,-8.16a11.13,11.13 0 0 0 -9.78,-5.87l-0.41,0a13.23,13.23 0 0 0 -20.36,-14.07a13.23,13.23 0 0 0 -5.32,14.07l-0.4,0a11.15,11.15 0 1 0 0,22.3l38.68,0l0,-0.07a8.28,8.28 0 0 0 7.19,-8.2zm-321.36,81.82a7.09,7.09 0 0 0 -7.1,-7.09c-0.38,0.01 -0.76,0.04 -1.13,0.1a9.55,9.55 0 0 0 -8.43,-5.03l-0.34,0a11.35,11.35 0 1 0 -22.01,0l-0.35,0a9.56,9.56 0 1 0 0,19.12l33.18,0l0,-0.06a7.11,7.11 0 0 0 6.18,-7.04z" fill="#7f003f" id="svg_7" opacity="0.24"/>
  </g>
 </g>
</svg>